HIERARCHY
ROOT Hips
{
    OFFSET 0.0 0.0 0.0
    CHANNELS 6 Xposition Yposition Zposition Zrotation Xrotation Yrotation
    JOINT LeftHipJoint
    {
        OFFSET 0.1 0.0 0.0
        CHANNELS 3 Zrotation Xrotation Yrotation
        JOINT LeftUpLeg
        {
            OFFSET 120.05201551057984 0.0 0.0
            CHANNELS 3 Zrotation Xrotation Yrotation
            JOINT LeftLeg
            {
                OFFSET 0.0 0.0 -399.155174072582
                CHANNELS 3 Zrotation Xrotation Yrotation
                JOINT LeftFoot
                {
                    OFFSET 0.0 0.0 -384.89591817929556
                    CHANNELS 3 Zrotation Xrotation Yrotation
                    End Site
                    {
                        OFFSET 0.0 -0.1 0.0
                    }
                }
            }
        }
    }
    JOINT LowerBack
    {
        OFFSET 0.0 0.0 0.1
        CHANNELS 3 Zrotation Xrotation Yrotation
        JOINT Spine
        {
            OFFSET 0.0 0.0 219.42058241808854
            CHANNELS 3 Zrotation Xrotation Yrotation
            JOINT Spine1
            {
                OFFSET 0.0 0.0 254.604728350761
                CHANNELS 3 Zrotation Xrotation Yrotation
                JOINT LeftShoulder
                {
                    OFFSET 0.1 0.0 0.0
                    CHANNELS 3 Zrotation Xrotation Yrotation
                    JOINT LeftArm
                    {
                        OFFSET 145.09362262231235 0.0 0.0
                        CHANNELS 3 Zrotation Xrotation Yrotation
                        JOINT LeftForeArm
                        {
                            OFFSET 253.8960639142784 0.0 0.0
                            CHANNELS 3 Zrotation Xrotation Yrotation
                            JOINT LeftHand
                            {
                                OFFSET 239.6662707426686 0.0 0.0
                                CHANNELS 3 Zrotation Xrotation Yrotation
                                End Site
                                {
                                    OFFSET 0.1 0.0 0.0
                                }
                            }
                        }
                    }
                }
                JOINT Neck
                {
                    OFFSET 0.0 0.0 0.1
                    CHANNELS 3 Zrotation Xrotation Yrotation
                    JOINT Neck1
                    {
                        OFFSET 0.0 0.0 109.56638041558585
                        CHANNELS 3 Zrotation Xrotation Yrotation
                        End Site
                        {
                            OFFSET 0.0 0.0 114.91837245717116
                        }
                    }
                }
                JOINT RightShoulder
                {
                    OFFSET -0.1 0.0 0.0
                    CHANNELS 3 Zrotation Xrotation Yrotation
                    JOINT RightArm
                    {
                        OFFSET -145.09362262231235 0.0 0.0
                        CHANNELS 3 Zrotation Xrotation Yrotation
                        JOINT RightForeArm
                        {
                            OFFSET -253.8960639142784 0.0 0.0
                            CHANNELS 3 Zrotation Xrotation Yrotation
                            JOINT RightHand
                            {
                                OFFSET -239.6662707426686 0.0 0.0
                                CHANNELS 3 Zrotation Xrotation Yrotation
                                End Site
                                {
                                    OFFSET -0.1 0.0 0.0
                                }
                            }
                        }
                    }
                }
            }
        }
    }
    JOINT RightHipJoint
    {
        OFFSET -0.1 0.0 0.0
        CHANNELS 3 Zrotation Xrotation Yrotation
        JOINT RightUpLeg
        {
            OFFSET -120.05201551057984 0.0 0.0
            CHANNELS 3 Zrotation Xrotation Yrotation
            JOINT RightLeg
            {
                OFFSET 0.0 0.0 -399.155174072582
                CHANNELS 3 Zrotation Xrotation Yrotation
                JOINT RightFoot
                {
                    OFFSET 0.0 0.0 -384.89591817929556
                    CHANNELS 3 Zrotation Xrotation Yrotation
                    End Site
                    {
                        OFFSET 0.0 -0.1 0.0
                    }
                }
            }
        }
    }
}
MOTION
Frames: 10
Frame Time: 0.03333333333333333
0.0 0.0 786.6686719233248 29.07986175472462 -1.3220255890440118 3.410521230728916 0.0 0.0 9.939233379573489e-17 0.040070049083049425 -14.32998380146998 -2.98399000499223 -1.537752523302803 26.09452710684729 0.8058326560133314 0.0 0.0 0.0 0.0 0.0 9.939233379573489e-17 0.02317564670554193 -9.084329186544338 6.007283139116726 4.982937330271491 1.122450189306466e-15 -1.6406218270738063e-15 0.0 0.0 0.0 -10.82668513926247 17.24802173988832 70.36633036465746 -20.18076247171858 -1.0619416815528974e-14 -8.401288751692688e-15 -1.1927080055488188e-15 -1.4483130040477084e-32 1.3914926731402886e-15 0.0 0.0 0.0 -15.074360384506319 -3.553777188148677 0.09584149797977333 0.0 0.0 0.0 44.794436716682256 -59.55229628145022 10.71139156904923 80.7904870062749 6.288993285505439e-15 -2.2056219615051922e-14 0.0 0.0 0.0 0.0 0.0 9.939233379573489e-17 0.014263270070644348 -6.672944334400629 0.8341896846110531 0.2956388161220905 23.16833969944823 0.62954246019847 0.0 0.0 7.951386703658791e-16
0.0 0.0 786.6686719233248 29.182815231078056 -1.3043291056091317 3.375638049636005 0.0 0.0 -9.93923337957349e-17 0.03461132304458922 -14.380605702478698 -2.9320465067716825 -1.510739237380604 26.239327969115593 0.8207114249500785 0.0 0.0 3.975693351829396e-16 0.0 0.0 -9.93923337957349e-17 0.019715532364017865 -9.104383364037416 6.062407869107528 5.042251963304181 3.971845160632819e-16 -1.7488181076977606e-17 0.0 0.0 0.0 -10.862227965904411 17.075504629982998 70.30622531805606 -20.22001026115246 1.3108712216145053e-15 -1.1881460381429477e-14 1.1927080055488188e-15 2.5862732215137646e-32 2.4848083448933726e-15 0.0 0.0 0.0 -15.091833162280073 -3.4579056044972347 0.056231560999389786 0.0 0.0 0.0 45.20180890537835 -59.54486714460351 11.200051212367246 80.11399827303136 3.2095456724871252e-15 -1.1009354278946271e-14 0.0 0.0 0.0 0.0 0.0 -9.93923337957349e-17 0.011831694819795124 -6.746073293024077 0.8622167443329131 0.3196824001689891 23.33911187450149 0.5738597382833127 0.0 0.0 7.951386703658792e-16
0.0 0.0 786.6686719233248 29.259393595761825 -1.30093490026518 3.324246891819301 0.0 0.0 -9.93923337957349e-17 0.0385283565372812 -14.540856581210479 -2.8939573919884247 -1.5034486720706897 26.306288713688904 0.9087082759803283 0.0 0.0 -3.975693351829396e-16 0.0 0.0 -9.93923337957349e-17 0.0217958092851899 -9.046385703378615 6.099918137895869 5.109938320488757 -1.9504250148603406e-15 8.829621585681767e-16 0.0 0.0 0.0 -11.014620493106566 17.063896034861422 70.28154500373269 -20.33248342446073 -2.7245765712240195e-15 1.2941463371464039e-14 1.1927080055488188e-15 1.3448620751871577e-32 1.2921003393445538e-15 0.0 0.0 0.0 -15.14662912719511 -3.497879265373569 0.01287298967937556 0.0 0.0 0.0 45.7813886207031 -59.37055011385256 11.873456939010211 79.3998650361655 4.894239499084407e-15 -4.063266180392321e-15 -1.5902773407317584e-15 -3.1805546814635168e-15 -4.4139062980501586e-32 0.0 0.0 -9.93923337957349e-17 0.013579352502900651 -6.769174050423538 0.9498917230514794 0.35149313955983313 23.339679313748633 0.5302354623847928 0.0 0.0 7.951386703658792e-16
0.0 0.0 786.6686719233248 29.316122247202703 -1.2940923307948256 3.235598451993154 0.0 0.0 0.0 0.0456322037132879 -14.642177192433653 -2.8286674021777043 -1.490361652958117 26.39433253908972 1.0040068977467196 0.0 0.0 0.0 0.0 0.0 0.0 0.025839877146958172 -8.994061984309583 6.206525962056546 5.1654202244709095 -1.4811714600241122e-15 2.4546532692940314e-15 0.0 0.0 0.0 -10.77264117999193 17.053400416093893 70.15796120151539 -20.52813111918745 -2.1479693751341048e-14 2.267570174374384e-14 -3.975693351829396e-16 -6.207055731633036e-33 1.7890620083232284e-15 0.0 0.0 0.0 -15.268936692385527 -3.482503842278455 0.006361077982845282 0.0 0.0 0.0 46.30895397872441 -59.36882808522689 12.623219522781527 78.82623045387594 -3.16291211678078e-15 -1.386775210973686e-14 0.0 0.0 0.0 0.0 0.0 0.0 0.01676295939014629 -6.772212090925967 1.0352067904130329 0.3746199765534731 23.215873599158506 0.5584113566314802 0.0 0.0 1.1927080055488188e-15
0.0 0.0 786.6686719233248 29.3289864813604 -1.3178069504677874 3.228741726474304 6.896728590703373e-34 3.9756933518293955e-16 -1.9878466759146977e-16 0.041271624828202506 -14.683103375599611 -2.821723548702557 -1.4811553706750415 26.440149514625066 1.0749820572150883 0.0 0.0 3.975693351829396e-16 6.896728590703373e-34 3.9756933518293955e-16 -1.9878466759146977e-16 0.023133410906895347 -8.986608248925291 6.1761069968694375 5.218613972913842 -4.333560235189011e-16 -7.762148145126505e-16 0.0 0.0 0.0 -10.984045361017003 17.180673084490774 70.19666765022657 -20.619160620991867 1.1910561830668839e-15 2.3381475301785405e-15 -1.5902773407317584e-15 -2.758691436281349e-32 1.987846675914698e-15 0.0 0.0 0.0 -15.320065184082367 -3.527649917186704 -0.026634277978871072 0.0 0.0 0.0 46.84033490044294 -59.073453363718166 13.328281194639276 78.28440768950576 -1.5486530868109107e-15 -6.941276109305011e-15 -1.5902773407317584e-15 0.0 0.0 6.896728590703373e-34 3.9756933518293955e-16 -1.9878466759146977e-16 0.014830287143412595 -6.7896657757998 1.0481633491244804 0.38716358437773507 23.19724339169638 0.5698277058928006 -4.138037154422024e-33 -3.975693351829396e-16 -1.1927080055488188e-15
0.0 0.0 786.6686719233248 29.309104376881013 -1.3640692325552424 3.220922729951816 0.0 0.0 0.0 0.04418063443768164 -14.702474587645005 -2.8159622729659546 -1.4856118602799644 26.465636536136902 1.1204375921288592 0.0 0.0 0.0 0.0 0.0 0.0 0.024810621328508514 -8.964594638178117 6.188948888411342 5.330732941387393 7.942784630063963e-16 -3.6976050565402453e-17 0.0 0.0 0.0 -10.932543750480558 17.187399680884422 70.13918303760327 -20.648325905061956 2.8047680494960528e-15 -1.3178362438201075e-14 -7.951386703658794e-16 0.0 0.0 0.0 0.0 0.0 -15.329647280908532 -3.5363470650611077 -0.09242548413000824 0.0 0.0 0.0 46.96823733482181 -58.735797679465946 13.410128111882091 77.89693824735662 0.0 0.0 0.0 0.0 0.0 0.0 0.0 0.0 0.01610187252508963 -6.765239408677805 1.0497133299326225 0.38034328432866443 23.04884694257615 0.5640094210933843 0.0 0.0 3.975693351829396e-16
0.0 0.0 786.6686719233248 29.334834871442162 -1.374013040433829 3.2120982489311656 -3.1805546814635168e-15 3.975693351829396e-16 -1.987846675914698e-16 0.060009207606458816 -14.702026297462634 -2.8190847435533524 -1.5256469030987772 26.576595962687584 1.1405547620365428 0.0 0.0 0.0 -3.1805546814635168e-15 3.975693351829396e-16 -1.987846675914698e-16 0.03460488403660758 -9.039304129226172 6.158338616591674 5.3392997997677245 -1.5515159622443428e-15 8.683465578080581e-16 0.0 0.0 0.0 -10.86895945489641 17.1958610554452 70.15384239763614 -20.719517876007103 -1.3645531934718321e-14 -5.242485968762929e-16 -7.951386703658792e-16 -9.655420026984722e-33 1.3914926731402886e-15 0.0 0.0 0.0 -15.29583261944852 -3.4664225305193264 -0.06692373788512927 0.0 0.0 0.0 47.174068682982316 -58.50912379974114 13.664558873434322 77.48875787929317 -2.4806605396240686e-15 1.990540471563319e-15 0.0 0.0 0.0 -3.1805546814635168e-15 3.975693351829396e-16 -1.987846675914698e-16 0.02291729177204315 -6.684680934301242 1.0723408460228274 0.3605862574432146 22.8456817322213 0.6011855125174225 -1.1034765745125397e-32 -1.5902773407317584e-15 -7.951386703658792e-16
0.0 0.0 786.6686719233248 29.30040248708486 -1.3937215094626763 3.11645920111515 0.0 0.0 0.0 0.08111279262661772 -14.761847441570117 -2.7129091776846974 -1.5099428038465958 26.52402721900388 1.1794921971835635 -6.207055731633036e-33 -1.789062008323228e-15 -3.9756933518293955e-16 0.0 0.0 0.0 0.04725322180547843 -9.053250518079702 6.223626743681474 5.4009167774665405 1.5135863047769337e-15 -1.6634363645422245e-15 0.0 0.0 0.0 -10.67921614926692 17.112065099922212 70.10709209720025 -20.72183962259239 -4.896396812836728e-16 -8.374788401518268e-15 -1.5902773407317584e-15 2.758691436281349e-33 -1.987846675914698e-16 0.0 0.0 0.0 -15.266094351401788 -3.404949054314113 -0.10681482836089155 0.0 0.0 0.0 47.31875631055413 -58.156051355215 13.834671465099804 76.95674435010336 -1.4681289839528728e-15 -6.958752596218303e-15 0.0 0.0 0.0 0.0 0.0 0.0 0.03146924431160478 -6.5539043830604475 1.1398505645805157 0.3510035686826766 22.584084483881124 0.625135984901627 0.0 0.0 0.0
0.0 0.0 786.6686719233248 29.258356423445086 -1.378875330058071 3.0838534881117146 -2.586273221513765e-34 -9.939233379573489e-17 -2.9817700138720465e-16 0.09314577827875514 -14.892340905066384 -2.7009328807335904 -1.522306888955752 26.468444858194886 1.2762503303512933 0.0 0.0 3.975693351829396e-16 -2.586273221513765e-34 -9.939233379573489e-17 -2.9817700138720465e-16 0.05388722925266708 -9.033081192058011 6.237042761022045 5.455517823682011 0.0 0.0 6.3611093629270335e-15 -2.2069531490250793e-32 -3.975693351829396e-16 -10.738597702946551 17.19382537698422 70.12122087339084 -20.695939835385637 3.545033222179064e-15 2.718539666387801e-15 -7.951386703658792e-16 5.517382872562698e-32 -7.951386703658792e-15 6.3611093629270335e-15 -2.2069531490250793e-32 -3.975693351829396e-16 -15.207015208193805 -3.456480281919598 -0.16779658279315315 6.3611093629270335e-15 -2.2069531490250793e-32 -3.975693351829396e-16 47.23677941021707 -57.83870934647708 13.812463926707418 76.68784580491324 -2.903591339802377e-15 -1.3924357039627161e-14 0.0 -3.1805546814635168e-15 0.0 -2.586273221513765e-34 -9.939233379573489e-17 -2.9817700138720465e-16 0.035414124354478875 -6.402618008035549 1.096632848797318 0.30959401648550827 22.214620167151846 0.6590138331552063 0.0 0.0 -3.975693351829396e-16
0.0 0.0 786.6686719233248 29.18891775045001 -1.3870898315363642 3.0216055191573625 -8.620910738379216e-35 -9.93923337957349e-17 -9.93923337957349e-17 0.09363315136093198 -14.881609826244931 -2.6273548019174853 -1.4825597534212804 26.40588626423088 1.3209363665974085 0.0 0.0 3.975693351829396e-16 -8.620910738379216e-35 -9.93923337957349e-17 -9.93923337957349e-17 0.05394419658520131 -8.987803864635582 6.223774331931194 5.514320483688122 -1.1148302685204793e-15 1.645809186794043e-15 -6.3611093629270335e-15 0.0 0.0 -10.688973639292776 17.251208148886032 70.15483782373244 -20.756894310982698 1.3168259283543209e-15 6.051287516125842e-15 -7.951386703658792e-16 2.0690185772110117e-32 -2.9817700138720468e-15 -6.3611093629270335e-15 0.0 0.0 -15.054179717384203 -3.4880174708428244 -0.23606872564015477 -6.3611093629270335e-15 0.0 0.0 47.30284898303913 -57.39040415029128 14.045325798668776 76.21221167876288 3.925566111264489e-15 5.005361428829067e-15 0.0 0.0 0.0 -8.620910738379216e-35 -9.93923337957349e-17 -9.93923337957349e-17 0.0346670090278738 -6.2385017266770495 1.1655142695829779 0.3323717858310194 21.94408629060093 0.6392650873708016 0.0 0.0 -3.975693351829396e-16
